<svg xmlns="http://www.w3.org/2000/svg" xmlns:xlink="http://www.w3.org/1999/xlink" width="600" zoomAndPan="magnify" viewBox="0 0 450 449.999984" height="600" preserveAspectRatio="xMidYMid meet" version="1.0"><defs><clipPath id="d81dd1ff7a"><path d="M 51 106 L 403 106 L 403 414.585938 L 51 414.585938 Z M 51 106 " clip-rule="nonzero"/></clipPath><clipPath id="3389e25f0e"><path d="M 297.042969 237 L 382.496094 237 L 382.496094 323.785156 L 297.042969 323.785156 Z M 297.042969 237 " clip-rule="nonzero"/></clipPath><clipPath id="6e88c9a112"><path d="M 154.199219 281.476562 L 301.753906 281.476562 L 301.753906 404.734375 L 154.199219 404.734375 Z M 154.199219 281.476562 " clip-rule="nonzero"/></clipPath></defs><g clip-path="url(#d81dd1ff7a)"><path fill="currentColor" d="M 239.25 109.980469 C 230.058594 104.835938 215.023438 105.019531 205.855469 110.390625 L 67.894531 191.460938 C 58.738281 196.855469 51.335938 209.929688 51.335938 220.492188 L 51.335938 395.109375 C 51.335938 405.6875 60.003906 414.410156 70.566406 414.410156 L 152.136719 414.410156 C 162.863281 414.410156 171.535156 405.6875 171.535156 395.109375 L 171.535156 315.039062 C 171.535156 304.46875 180.214844 295.820312 190.726562 295.820312 L 262.558594 295.820312 C 273.179688 295.820312 281.828125 304.46875 281.828125 315.039062 L 281.828125 395.109375 C 281.828125 405.6875 290.558594 414.410156 301.226562 414.410156 L 382.789062 414.410156 C 393.285156 414.410156 402.046875 405.6875 402.046875 395.109375 L 402.046875 220.492188 C 402.046875 209.929688 394.441406 196.929688 385.164062 191.789062 L 239.25 109.980469 " fill-opacity="1" fill-rule="nonzero"/></g><path fill="currentColor" d="M 433.019531 170.128906 C 429.421875 176.472656 418.886719 177.441406 409.570312 172.109375 L 237.984375 72.480469 C 228.753906 67.171875 213.816406 67.3125 204.65625 72.75 L 40.503906 171.714844 C 31.390625 177.1875 20.792969 176.472656 17.039062 170.128906 C 13.164062 163.796875 17.476562 154.023438 26.566406 148.621094 L 204.425781 41.398438 C 213.601562 35.949219 228.484375 35.71875 237.699219 41.082031 L 423.164062 148.703125 C 432.304688 154.023438 436.878906 163.660156 433.019531 170.128906 " fill-opacity="1" fill-rule="nonzero"/><path fill="#00a86b" d="M 176.707031 176.75 C 232.761719 168.890625 237.292969 269.28125 185.421875 266.851562 C 143.722656 264.898438 127.984375 183.578125 176.707031 176.75 " fill-opacity="1" fill-rule="evenodd"/><path fill="#00a86b" d="M 266.808594 176.75 C 328.550781 163.273438 321.339844 272.953125 263.902344 266.851562 C 218.441406 262.019531 227.300781 185.371094 266.808594 176.75 " fill-opacity="1" fill-rule="evenodd"/><path fill="#00a86b" d="M 156.363281 297.371094 C 134.40625 345.296875 67.496094 311.441406 74.980469 263.941406 C 82.855469 213.917969 172.328125 239.421875 156.363281 297.371094 " fill-opacity="1" fill-rule="evenodd"/><g clip-path="url(#3389e25f0e)"><path fill="#00a86b" d="M 338.023438 237.789062 C 352.464844 234.992188 370.515625 240.125 377.257812 252.316406 C 395.847656 285.964844 361.582031 327.085938 327.847656 323.523438 C 309.320312 321.582031 298.617188 305.808594 297.328125 291.558594 C 294.570312 261.03125 316.355469 241.980469 338.023438 237.789062 " fill-opacity="1" fill-rule="evenodd"/></g><g clip-path="url(#6e88c9a112)"><path fill="#00a86b" d="M 213.039062 282.835938 C 263.957031 274.054688 310.703125 310.746094 300.238281 372.9375 C 298.066406 385.8125 286.984375 404.011719 271.167969 404.910156 C 258.398438 405.640625 243.46875 393.207031 227.574219 393.285156 C 207.832031 393.378906 192.277344 410.882812 173.796875 402.007812 C 158.28125 394.542969 152.007812 364.375 154.910156 342.421875 C 159.085938 310.777344 182.355469 288.128906 213.039062 282.835938 " fill-opacity="1" fill-rule="evenodd"/></g></svg>